<svg width="18" height="18" viewBox="0 0 18 18" fill="none" xmlns="http://www.w3.org/2000/svg">
    <path d="M9.1775 18C9.1179 18 9.0583 18 8.99828 17.9997C7.58731 18.0032 6.2836 17.9673 5.01572 17.8901C3.85333 17.8194 2.79228 17.4177 1.94713 16.7286C1.13163 16.0637 0.574744 15.1646 0.291973 14.0566C0.0458697 13.092 0.0328229 12.1451 0.0203255 11.2292C0.0112614 10.5721 0.00192268 9.79346 0 9.00162C0.00192268 8.20649 0.0112614 7.42783 0.0203255 6.77071C0.0328229 5.85499 0.0458697 4.90811 0.291973 3.94337C0.574744 2.83539 1.13163 1.9363 1.94713 1.27135C2.79228 0.582226 3.85333 0.180538 5.01586 0.109813C6.28373 0.0327713 7.58772 -0.00320908 9.00172 0.000224161C10.4131 -0.00279709 11.7164 0.0327713 12.9843 0.109813C14.1467 0.180538 15.2077 0.582226 16.0529 1.27135C16.8685 1.9363 17.4253 2.83539 17.708 3.94337C17.9541 4.90797 17.9672 5.85499 17.9797 6.77071C17.9887 7.42783 17.9982 8.20649 18 8.99833V9.00162C17.9982 9.79346 17.9887 10.5721 17.9797 11.2292C17.9672 12.145 17.9543 13.0918 17.708 14.0566C17.4253 15.1646 16.8685 16.0637 16.0529 16.7286C15.2077 17.4177 14.1467 17.8194 12.9843 17.8901C11.7701 17.964 10.5228 18 9.1775 18V18ZM8.99828 16.5935C10.3863 16.5968 11.6608 16.5617 12.8989 16.4865C13.7778 16.4331 14.5399 16.1478 15.1642 15.6388C15.7413 15.1681 16.1387 14.5188 16.3454 13.7089C16.5503 12.9059 16.5621 12.0437 16.5735 11.21C16.5824 10.5573 16.5918 9.78413 16.5937 8.99997C16.5918 8.21569 16.5824 7.44266 16.5735 6.78993C16.5621 5.9562 16.5503 5.09405 16.3454 4.29095C16.1387 3.48098 15.7413 2.83168 15.1642 2.36106C14.5399 1.85211 13.7778 1.56688 12.8989 1.51346C11.6608 1.43806 10.3863 1.40332 9.00158 1.40634C7.61382 1.40304 6.33922 1.43806 5.10115 1.51346C4.22221 1.56688 3.46014 1.85211 2.83582 2.36106C2.25874 2.83168 1.86129 3.48098 1.6546 4.29095C1.4497 5.09405 1.43789 5.95607 1.42649 6.78993C1.41756 7.44321 1.40823 8.21678 1.4063 9.00162C1.40823 9.78303 1.41756 10.5567 1.42649 11.21C1.43789 12.0437 1.4497 12.9059 1.6546 13.7089C1.86129 14.5188 2.25874 15.1681 2.83582 15.6388C3.46014 16.1477 4.22221 16.4329 5.10115 16.4864C6.33922 16.5617 7.61409 16.5969 8.99828 16.5935V16.5935ZM8.96477 13.3945C6.54165 13.3945 4.57007 11.4232 4.57007 8.99997C4.57007 6.5768 6.54165 4.60543 8.96477 4.60543C11.388 4.60543 13.3595 6.5768 13.3595 8.99997C13.3595 11.4232 11.388 13.3945 8.96477 13.3945V13.3945ZM8.96477 6.01168C7.31704 6.01168 5.97638 7.3523 5.97638 8.99997C5.97638 10.6477 7.31704 11.9883 8.96477 11.9883C10.6126 11.9883 11.9532 10.6477 11.9532 8.99997C11.9532 7.3523 10.6126 6.01168 8.96477 6.01168V6.01168ZM13.8517 3.19918C13.2692 3.19918 12.797 3.67132 12.797 4.25387C12.797 4.83642 13.2692 5.30856 13.8517 5.30856C14.4343 5.30856 14.9064 4.83642 14.9064 4.25387C14.9064 3.67132 14.4343 3.19918 13.8517 3.19918Z" fill="#F8F8F8"/>
</svg>
