<svg width="139" height="35" viewBox="0 0 139 35" fill="none" xmlns="http://www.w3.org/2000/svg">
<path fill-rule="evenodd" clip-rule="evenodd" d="M21.1136 0.10074C21.1134 0.156118 21.2047 0.382812 21.3163 0.604439C21.5542 1.07682 21.666 1.72714 21.6083 2.30263C21.5735 2.64906 19.533 15.2967 19.4652 15.5859L19.4348 15.7154L16.4437 15.7163C14.7986 15.7168 13.4231 15.7362 13.3872 15.7595C13.3512 15.7827 12.4896 17.4589 11.4726 19.4844C10.1655 22.0873 9.61343 23.1336 9.58944 23.0534C9.57076 22.991 9.28079 21.3727 8.94502 19.4572C8.60931 17.5417 8.30934 15.9162 8.2784 15.8449L8.22226 15.7154H4.9541H1.686V15.8646C1.686 15.9467 1.7381 16.0798 1.80176 16.1604C1.86548 16.241 1.97204 16.4782 2.03859 16.6876C2.28717 17.4695 2.27109 17.6086 1.11485 24.6957C0.53895 28.2259 0.0524431 31.1855 0.0338248 31.2725L0 31.4308H1.51422H3.02843L2.98871 31.2725C2.96691 31.1854 2.9114 31.0726 2.86538 31.0217C2.81935 30.9709 2.72747 30.7766 2.66121 30.59C2.56008 30.3053 2.54511 30.1582 2.568 29.6751C2.59483 29.1085 3.80549 21.1949 3.87776 21.1137C3.89818 21.0908 4.34577 23.3963 4.8724 26.237L5.82998 31.4021L6.92366 31.4166L8.0174 31.431L10.5326 26.2744C11.916 23.4383 13.0625 21.1082 13.0805 21.0966C13.1281 21.0657 12.0215 28.7177 11.8358 29.7039C11.5706 31.1126 11.5521 31.2351 11.5904 31.3345C11.6245 31.4228 11.8768 31.4308 14.6361 31.4308H17.6446V31.2895C17.6446 31.2117 17.5822 31.0566 17.5059 30.9448C17.2925 30.6317 17.2196 30.2278 17.2568 29.5657C17.275 29.242 17.7653 26.0733 18.3633 22.4156C18.9538 18.8028 19.437 15.8173 19.437 15.7812C19.437 15.7336 19.852 15.7154 20.9404 15.7154C22.1044 15.7154 22.4438 15.6992 22.444 15.6435C22.4441 15.6039 22.3465 15.3795 22.2271 15.1449C21.875 14.4528 21.891 14.2323 22.6382 9.46955C22.981 7.28493 23.2791 5.45181 23.3007 5.39603C23.3225 5.33967 23.7625 7.58116 24.2895 10.433C24.8118 13.2592 25.2504 15.6039 25.2642 15.6435C25.2831 15.6976 25.5571 15.7154 26.3682 15.7154H27.4472L29.9553 10.5777C31.3349 7.75196 32.4863 5.41485 32.5141 5.38417C32.5434 5.35176 32.5513 5.39989 32.5328 5.4993C32.5153 5.59331 32.2556 7.37991 31.9555 9.46955C31.6554 11.5592 31.3138 13.777 31.1964 14.398C31.079 15.0191 30.9992 15.5695 31.0192 15.6213C31.0521 15.7067 31.3351 15.7154 34.0929 15.7154C37.0185 15.7154 37.1303 15.7114 37.1303 15.6081C37.1303 15.549 37.0762 15.4323 37.0101 15.3486C36.944 15.265 36.8369 15.0477 36.7722 14.8659C36.6723 14.5854 36.6591 14.4437 36.685 13.9309C36.704 13.5546 37.1213 10.8441 37.7902 6.75095C38.3813 3.13439 38.8649 0.135969 38.8649 0.0877293C38.8649 0.0102459 38.5148 0.000115975 35.8727 0.000864328C34.227 0.00138242 32.851 0.020782 32.815 0.0440386C32.779 0.0672951 31.9165 1.74424 30.8983 3.77055C29.4158 6.72085 29.0402 7.42608 29.0129 7.31084C28.9941 7.23168 28.702 5.58675 28.3637 3.65542C28.0254 1.72409 27.7227 0.111562 27.691 0.0719571C27.6462 0.0159457 26.9123 0 24.3737 0C21.3077 0 21.1139 0.00598683 21.1136 0.10074ZM45.294 2.67922C43.9697 2.90914 42.6446 3.6085 41.642 4.60669C40.0504 6.19124 39.1246 8.69207 39.3302 10.8518C39.5619 13.2871 41.2431 15.3764 43.3819 15.8868C44.3056 16.1073 45.8076 16.0172 46.8185 15.6808C48.7053 15.0528 50.3128 13.6541 51.2547 11.8208C52.3559 9.67765 52.4525 7.47639 51.5274 5.61265C50.8358 4.21916 49.5988 3.18419 48.1163 2.75843C47.5487 2.59546 46.0231 2.55263 45.294 2.67922ZM58.5529 2.82192C57.3178 3.17849 55.3611 3.5115 54.5013 3.5115C54.104 3.5115 54.0644 3.52233 54.0074 3.64684C53.9555 3.76019 53.9765 3.83692 54.1366 4.11934C54.4902 4.74318 54.487 4.77778 53.5552 10.44C53.1079 13.1584 52.7419 15.4444 52.7419 15.5202V15.6579H55.315C58.2243 15.6579 58.0146 15.6977 57.7579 15.1938C57.6415 14.9652 57.6285 14.8593 57.6342 14.1899C57.64 13.5168 57.7053 13.0637 58.2847 9.68243C58.6389 7.61496 58.9288 5.90261 58.9288 5.87722C58.9288 5.79755 59.6975 5.47829 59.9696 5.44502C60.3694 5.39609 60.6103 5.50725 60.7646 5.81194C60.8361 5.95321 60.8946 6.13454 60.8945 6.2149C60.8945 6.29526 60.5309 8.4306 60.0868 10.9602C59.6426 13.4897 59.2929 15.5815 59.3098 15.6086C59.3266 15.6357 60.4967 15.6579 61.91 15.6579H64.4796V15.5213C64.4796 15.4461 64.4274 15.2673 64.3637 15.1238C64.103 14.5371 64.1168 14.4003 64.9131 9.67103C65.7353 4.7886 65.7344 4.79919 65.4189 4.12798C65.171 3.60067 64.8412 3.26564 64.3153 3.00694L63.8782 2.79193L63.0659 2.79619C62.3379 2.79994 62.2054 2.8168 61.7909 2.95813C61.2242 3.15137 60.416 3.52831 59.728 3.92028C59.4437 4.08227 59.1991 4.20281 59.1844 4.18813C59.1697 4.17345 59.2101 3.89218 59.2743 3.56302C59.4151 2.84104 59.4183 2.72821 59.2999 2.68296C59.18 2.6372 59.2167 2.63035 58.5529 2.82192ZM83.8819 2.76718C81.8775 2.94379 80.4874 3.57465 80.0022 4.52806C79.8496 4.82792 79.8311 4.9214 79.8311 5.39183C79.8311 5.88517 79.8423 5.93519 80.0045 6.16419C80.1172 6.32312 80.3098 6.48132 80.5538 6.61527C80.9146 6.8133 80.9528 6.82153 81.5091 6.82153C82.0437 6.82153 82.1175 6.80731 82.4631 6.63789C82.9419 6.40326 83.3292 6.07657 83.3292 5.90744C83.3292 5.80895 83.2646 5.75219 83.0488 5.66147C82.5749 5.46212 82.5489 5.03388 82.9908 4.70697C83.2441 4.51959 83.4951 4.4394 83.9641 4.396C85.0808 4.29267 85.7406 4.84507 85.804 5.93651C85.8294 6.37269 85.6258 7.90411 85.5273 8.01763C85.506 8.04232 85.3214 8.02241 85.1172 7.97342C84.6039 7.85028 83.3017 7.80026 82.6618 7.87913C80.7117 8.11935 79.1573 9.10556 78.4428 10.5556C78.111 11.2293 78.011 11.6219 77.9718 12.4054C77.8969 13.9025 78.5019 15.0751 79.6287 15.6168C80.7225 16.1427 82.0251 16.0134 83.6039 15.2222L84.4278 14.8093V15.0353C84.4278 15.1597 84.4569 15.3766 84.4925 15.5172L84.5572 15.773H86.8569H89.1566L89.1913 15.6353C89.2126 15.5511 89.1767 15.3891 89.0989 15.218C88.9991 14.9986 88.9667 14.8 88.9487 14.2974C88.9272 13.6955 88.9637 13.4308 89.5475 9.9512C90.1621 6.28743 90.1684 6.24069 90.1038 5.78535C89.9515 4.70973 89.2539 3.83341 88.1158 3.28798C87.4748 2.98081 87.0478 2.85929 86.2796 2.76545C85.7285 2.6981 84.6572 2.69891 83.8819 2.76718ZM68.513 3.08086C68.3951 3.16064 68.2731 3.27353 68.2418 3.33173C68.1572 3.489 67.8214 5.46073 67.8668 5.53373C67.9307 5.63671 68.2437 5.55088 68.6114 5.32954C68.8009 5.21545 69.0481 5.09249 69.1607 5.05628C69.4024 4.97856 72.3434 4.91622 72.343 4.98881C72.3428 5.01529 70.9125 6.96176 69.1647 9.31424C67.1638 12.0073 65.9647 13.6703 65.9273 13.8044C65.8947 13.9214 65.8678 14.284 65.8676 14.6102C65.8673 15.2379 65.9384 15.4841 66.1532 15.5986C66.2271 15.6379 67.9715 15.6579 71.3464 15.6579H76.4284L76.5466 15.5283C76.646 15.4194 76.6847 15.218 76.7904 14.2603C76.8594 13.634 76.9003 13.0965 76.8812 13.0658C76.8162 12.9611 76.6515 13.0114 76.2274 13.2654C75.6314 13.6223 75.3786 13.6542 73.3191 13.6324L71.6063 13.6143L74.9282 9.09537C76.7552 6.60998 78.3129 4.44695 78.3895 4.28864C78.5721 3.91176 78.5923 3.18246 78.4243 3.03112C78.3278 2.94408 77.9043 2.93585 73.523 2.93585H68.7274L68.513 3.08086ZM47.0381 4.27834C47.4436 4.58626 47.5996 5.41514 47.4843 6.64883C47.3169 8.43786 46.7911 11.4226 46.4346 12.6069C46.3345 12.9393 46.173 13.3741 46.0757 13.5731C45.5166 14.716 44.3537 14.7978 44.0487 13.7156C43.9251 13.277 43.9216 12.1078 44.0411 11.1851C44.3888 8.50147 44.9152 6.05464 45.3606 5.05208C45.514 4.70674 45.8018 4.35358 46.0636 4.18951C46.3135 4.03282 46.7695 4.07438 47.0381 4.27834ZM85.2289 9.58572C85.2614 9.62037 85.1737 10.2991 85.0021 11.3404L84.7221 13.0386L84.5316 13.1993C84.0292 13.6232 83.3003 13.8037 82.9245 13.5973C82.5759 13.4058 82.4904 13.1865 82.4934 12.4917C82.4975 11.5542 82.7868 10.7416 83.3178 10.1764C83.8323 9.62883 84.1346 9.48969 84.7585 9.51335C84.988 9.52205 85.1997 9.55463 85.2289 9.58572ZM40.2237 16.2662C39.3344 16.4969 38.553 16.6494 37.452 16.8072C37.0088 16.8707 36.6267 16.9425 36.6029 16.9667C36.5791 16.9908 36.492 17.3992 36.4094 17.8741C36.3267 18.349 36.2449 18.8088 36.2275 18.8959L36.1959 19.0542H35.4849C34.9839 19.0542 34.7575 19.0755 34.7187 19.1262C34.6721 19.1871 34.4705 20.3798 34.4705 20.595C34.4705 20.6476 34.6598 20.6661 35.1995 20.6661C35.9264 20.6661 35.9285 20.6665 35.8968 20.7956C35.8794 20.8668 35.562 22.6996 35.1916 24.8684C34.5485 28.6337 34.5192 28.8415 34.5408 29.4736C34.56 30.0356 34.5861 30.1849 34.7142 30.4623C35.025 31.1359 35.6006 31.5578 36.4727 31.7509C36.8131 31.8263 37.1014 31.8418 37.7857 31.8215C38.578 31.798 38.7138 31.7781 39.1951 31.615C40.0074 31.3397 40.9806 30.8237 41.3657 30.4641L41.5247 30.3156V29.4916C41.5247 29.0385 41.5014 28.6677 41.4729 28.6677C41.4444 28.6677 41.2174 28.764 40.9685 28.8817C40.477 29.1141 39.9566 29.1911 39.6568 29.0758C39.435 28.9906 39.2578 28.5816 39.2588 28.1571C39.2595 27.904 40.3237 21.3583 40.4557 20.7956C40.4856 20.668 40.4996 20.6661 41.4062 20.6661C42.2322 20.6661 42.3295 20.6558 42.3575 20.5653C42.4089 20.399 42.565 19.3827 42.5652 19.2125L42.5654 19.0542H41.7078C41.236 19.0542 40.8373 19.0415 40.8217 19.026C40.8061 19.0104 40.9061 18.3693 41.0439 17.6012C41.1818 16.8332 41.2821 16.1724 41.2668 16.1328C41.2265 16.0279 41.0611 16.049 40.2237 16.2662ZM124.989 16.2662C124.1 16.4969 123.319 16.6494 122.218 16.8072C121.774 16.8707 121.393 16.9425 121.369 16.9667C121.346 16.9908 121.259 17.3992 121.176 17.8741C121.093 18.349 121.011 18.8088 120.994 18.8959L120.962 19.0542H120.242C119.551 19.0542 119.521 19.0593 119.468 19.1837C119.422 19.2928 119.236 20.4364 119.236 20.6102C119.236 20.6433 119.532 20.6661 119.963 20.6661H120.691L120.657 20.8244C120.638 20.9115 120.322 22.7442 119.954 24.8971C119.316 28.63 119.286 28.8423 119.307 29.4736C119.326 30.0362 119.352 30.1847 119.48 30.4623C119.791 31.1359 120.366 31.5578 121.238 31.7509C121.579 31.8263 121.867 31.8418 122.551 31.8215C123.343 31.798 123.479 31.7781 123.96 31.6152C124.799 31.331 125.716 30.8438 126.131 30.4618L126.29 30.3156V29.4916C126.29 29.0385 126.267 28.6677 126.238 28.6677C126.21 28.6677 125.983 28.764 125.734 28.8817C125.243 29.1139 124.722 29.1911 124.423 29.0761C124.193 28.9877 124.038 28.6182 124.036 28.154C124.035 27.8717 125.063 21.4966 125.222 20.7956C125.251 20.668 125.265 20.6661 126.17 20.6661C126.965 20.6661 127.092 20.6535 127.124 20.5722C127.17 20.4509 127.331 19.3868 127.331 19.1985V19.0542H126.464C125.616 19.0542 125.596 19.0514 125.596 18.9312C125.596 18.8635 125.702 18.2155 125.831 17.4911C125.959 16.7667 126.049 16.1485 126.029 16.1174C125.975 16.0305 125.803 16.0551 124.989 16.2662ZM85.1795 18.5125C84.0586 18.813 82.0355 19.1694 81.4501 19.1694C80.897 19.1694 80.7597 19.3283 81.0099 19.6786C81.1519 19.8772 81.3055 20.3969 81.3055 20.6786C81.3055 20.8006 81.1632 21.7738 80.9893 22.8412C80.8155 23.9087 80.4368 26.2327 80.1479 28.0057C79.8589 29.7787 79.5724 31.5791 79.5113 32.0065C79.3849 32.8888 79.2485 34.7731 79.3011 34.9095C79.3321 34.9898 79.6184 34.9999 81.853 34.9999C84.6179 34.9999 84.5114 35.0148 84.2612 34.6634C83.8966 34.1513 83.8484 33.2893 84.1044 31.8626C84.1953 31.356 84.279 30.931 84.2903 30.9182C84.3017 30.9053 84.5675 31.0149 84.8811 31.1618C85.665 31.5289 86.0651 31.6258 86.7985 31.6259C87.9151 31.6262 89.0277 31.2247 89.9532 30.4875C90.8482 29.7746 91.7267 28.5481 92.1844 27.3726C92.4292 26.7438 92.7217 25.56 92.8416 24.7129C92.967 23.8271 92.9395 22.2996 92.7864 21.6447C92.6596 21.1022 92.217 20.1685 91.8722 19.7162C91.2193 18.8595 90.2453 18.3634 89.2163 18.3634C88.4424 18.3634 87.6294 18.6681 86.6923 19.3092C86.4271 19.4906 86.1963 19.6252 86.1795 19.6084C86.1626 19.5916 86.1817 19.3203 86.222 19.0056C86.2916 18.4614 86.2791 18.2431 86.1787 18.2526C86.1539 18.2549 85.7042 18.3718 85.1795 18.5125ZM26.6936 18.3997C24.6598 18.6186 22.7532 19.7809 21.6068 21.5008C20.1935 23.6209 19.7968 26.2651 20.5869 28.298C21.2369 29.9702 22.5911 31.2458 24.1708 31.6737C24.758 31.8328 26.1051 31.845 26.8562 31.6982C28.2446 31.4266 29.6756 30.6432 30.7121 29.5872C31.7439 28.5363 32.4604 27.238 32.8387 25.7344C32.9736 25.1984 32.9916 25.0128 32.9925 24.1488C32.9934 23.3239 32.9733 23.09 32.8643 22.6604C32.5964 21.603 32.1478 20.7778 31.4447 20.0487C30.7241 19.3015 29.8455 18.7802 28.8908 18.5336C28.4321 18.4151 27.2305 18.3419 26.6936 18.3997ZM49.822 18.3997C47.9146 18.605 46.1384 19.6202 44.9629 21.1768C44.2469 22.125 43.6194 23.5803 43.4084 24.782C43.2818 25.5032 43.2901 26.66 43.4266 27.3149C43.8702 29.4436 45.3928 31.1573 47.2992 31.6737C47.8864 31.8328 49.2335 31.845 49.9846 31.6982C51.375 31.4262 52.7744 30.6605 53.826 29.5963C54.8715 28.5383 55.5867 27.248 55.9668 25.7344C56.1031 25.1915 56.119 25.021 56.1171 24.12C56.1151 23.2234 56.0985 23.0517 55.9659 22.5589C55.678 21.4887 55.1826 20.6321 54.4304 19.9043C53.7344 19.2308 52.915 18.765 52.0192 18.5336C51.5605 18.4151 50.3589 18.3419 49.822 18.3997ZM100.415 18.4243C99.4446 18.5547 98.3421 18.9841 97.4645 19.5736C95.8749 20.6415 94.6943 22.5049 94.2557 24.6381C94.0889 25.4497 94.1174 26.9427 94.3134 27.6603C94.6582 28.9222 95.5186 30.2003 96.4835 30.8838C97.5631 31.6486 98.7356 31.9351 100.159 31.7819C103.429 31.4299 106.105 28.9126 106.839 25.4985C106.984 24.8216 106.986 23.465 106.843 22.796C106.397 20.718 104.826 19.0493 102.826 18.5293C102.306 18.3939 101.049 18.3393 100.415 18.4243ZM73.0093 18.4852C71.1737 18.7513 69.7927 19.6741 69.106 21.0934C68.7594 21.8098 68.6347 22.351 68.6343 23.1414C68.634 23.8504 68.702 24.1933 68.9373 24.6693C69.5157 25.839 70.6025 26.5478 72.821 27.2024C73.9985 27.5499 74.6148 27.9108 74.8702 28.4025C75.1464 28.9341 74.7522 29.6303 73.9834 29.9688C73.3491 30.248 72.3286 30.2935 71.6575 30.0722C71.2164 29.9269 70.8409 29.5735 70.8002 29.2657C70.7609 28.9678 70.8944 28.6709 71.1299 28.5324C71.3827 28.3838 71.3509 28.2316 70.9958 27.8892C69.9213 26.853 68.2816 26.994 67.6743 28.1748C67.4745 28.5631 67.4293 29.2473 67.5709 29.7379C67.8913 30.8476 69.0489 31.6536 70.7148 31.9269C71.4924 32.0544 73.1225 32.0541 73.8458 31.9261C75.2242 31.6823 76.3116 31.1692 77.1331 30.3749C78.0523 29.486 78.4736 28.4828 78.4713 27.1878C78.47 26.4497 78.3546 25.9266 78.0634 25.3385C77.4917 24.1839 76.3908 23.4954 74.0438 22.8248C73.5378 22.6802 72.964 22.4848 72.7687 22.3906C71.3135 21.6885 71.8825 20.3416 73.7055 20.173C74.9594 20.057 75.9785 20.8344 75.3371 21.4176C75.2346 21.5108 75.1305 21.5871 75.1058 21.5871C75.0811 21.5871 75.0608 21.6366 75.0608 21.6971C75.0608 21.9185 75.6569 22.2788 76.3575 22.4809C77.2317 22.7331 78.1589 22.3835 78.4971 21.674C78.6626 21.3267 78.6062 20.5611 78.3855 20.1578C77.9285 19.3228 76.8413 18.7231 75.4004 18.5113C74.7461 18.4152 73.5802 18.4024 73.0093 18.4852ZM133.271 18.508C130.77 18.9266 129.182 20.5633 129.027 22.8823C128.958 23.9103 129.26 24.7996 129.92 25.5084C130.553 26.1899 131.298 26.5815 133.022 27.1407C133.629 27.3375 134.263 27.5681 134.431 27.6533C135.01 27.9472 135.368 28.3769 135.368 28.7794C135.368 29.1946 134.971 29.6765 134.412 29.9412C133.943 30.1627 133.479 30.2413 132.853 30.2048C131.96 30.1528 131.351 29.8287 131.213 29.3332C131.131 29.0359 131.286 28.6607 131.547 28.5264C131.795 28.3987 131.773 28.2627 131.451 27.937C130.745 27.223 129.635 26.9945 128.838 27.3992C128.097 27.776 127.725 28.6563 127.933 29.5461C128.141 30.4377 128.596 30.9693 129.546 31.4297C130.268 31.7798 130.875 31.9276 131.913 32.0057C135.42 32.2695 138.089 30.8336 138.76 28.3223C138.898 27.8074 138.898 26.5923 138.761 26.0814C138.405 24.7604 137.424 23.8475 135.666 23.2023C135.423 23.1129 134.846 22.9346 134.385 22.8059C133.382 22.5262 133.168 22.4412 132.816 22.1851C132.475 21.9365 132.339 21.6629 132.375 21.2936C132.412 20.9158 132.621 20.6584 133.07 20.4393C134.015 19.9783 135.41 20.1216 135.816 20.7212C136.016 21.0165 135.987 21.1675 135.672 21.4598L135.397 21.7148L135.645 21.9345C135.782 22.0553 136.094 22.2393 136.339 22.3435C136.738 22.5129 136.842 22.5328 137.334 22.5332C137.818 22.5336 137.919 22.5152 138.18 22.3793C138.542 22.1913 138.875 21.818 138.96 21.5038C139.05 21.1758 138.982 20.5965 138.812 20.2253C138.416 19.3657 137.143 18.6697 135.628 18.4848C134.951 18.4022 133.838 18.4131 133.271 18.508ZM62.3691 18.6467C61.636 18.8773 59.641 19.228 58.7987 19.2743C58.1213 19.3116 58.0896 19.3189 58.0719 19.4431C58.0616 19.5146 58.1209 19.7105 58.2035 19.8786C58.5288 20.5406 58.5285 20.5449 57.9778 23.7746C56.9604 29.7401 56.7097 31.2912 56.7473 31.3885C56.783 31.4812 56.9653 31.4884 59.271 31.4884C61.5615 31.4884 61.7606 31.4806 61.8119 31.3894C61.8528 31.3165 61.8301 31.2267 61.726 31.0498C61.5266 30.711 61.4627 30.2439 61.5323 29.6327C61.5639 29.3546 61.8475 27.7147 62.1624 25.9886C62.7038 23.0216 62.7451 22.8346 62.9196 22.5639C63.3332 21.9222 64.0306 21.472 64.611 21.472C64.9078 21.472 64.9721 21.4929 65.1158 21.636C65.3318 21.8511 65.398 22.1856 65.2689 22.4096C65.1497 22.6163 65.1476 22.7605 65.2623 22.8553C65.3759 22.9492 65.8978 22.814 66.378 22.5663C66.7868 22.3554 66.8992 22.2619 67.1609 21.9144C67.4758 21.4962 67.6244 20.9433 67.587 20.3285C67.5397 19.5536 67.2622 19.0598 66.6833 18.721C66.437 18.5768 66.3681 18.5649 65.7806 18.5649C65.1913 18.5649 65.1211 18.5771 64.8265 18.7312C64.3539 18.9782 63.6925 19.672 63.2959 20.3366C63.1113 20.6462 62.9532 20.8923 62.9447 20.8835C62.9363 20.8747 62.9678 20.5178 63.0146 20.0904C63.0615 19.663 63.1046 19.1319 63.1103 18.9103C63.1231 18.4174 63.1114 18.4133 62.3691 18.6467ZM113.223 18.6318C112.388 18.9098 110.178 19.2845 109.374 19.2845C108.975 19.2845 108.937 19.2951 108.879 19.4209C108.827 19.5342 108.842 19.5951 108.965 19.7806C109.046 19.9036 109.152 20.1724 109.2 20.3782C109.308 20.8384 109.365 20.4414 108.316 26.5953C107.781 29.7319 107.533 31.3205 107.568 31.3883C107.615 31.4831 107.781 31.4886 110.116 31.4746C112.971 31.4575 112.774 31.5029 112.49 30.9271C112.212 30.3643 112.244 30.0188 112.926 26.2499C113.345 23.9319 113.551 22.923 113.642 22.7384C113.816 22.3837 114.4 21.8146 114.781 21.627C115.015 21.5118 115.183 21.472 115.436 21.472C115.732 21.472 115.797 21.4929 115.94 21.636C116.156 21.8511 116.223 22.1856 116.093 22.4096C115.974 22.6163 115.972 22.7605 116.087 22.8553C116.16 22.9153 116.24 22.911 116.525 22.8321C117.361 22.6007 117.88 22.1902 118.207 21.5008C118.385 21.1246 118.398 21.0577 118.398 20.4934C118.398 19.9516 118.381 19.8531 118.235 19.5435C118.045 19.1378 117.858 18.9283 117.501 18.7181C117.262 18.5772 117.19 18.5649 116.605 18.5649C115.992 18.5649 115.956 18.5718 115.607 18.7604C115.132 19.017 114.542 19.6397 114.112 20.339C113.926 20.6413 113.768 20.8829 113.761 20.8759C113.754 20.8689 113.789 20.4885 113.839 20.0307C113.889 19.5728 113.933 19.0427 113.938 18.8527C113.945 18.5231 113.939 18.5069 113.801 18.4974C113.721 18.4919 113.461 18.5524 113.223 18.6318ZM27.7458 19.9808C28.4444 20.3174 28.5484 21.3015 28.1676 23.9731C27.7124 27.1671 27.2463 29.0324 26.7238 29.7504C26.4152 30.1747 25.9162 30.3655 25.4855 30.224C24.7572 29.9847 24.6371 28.7213 25.0722 25.8758C25.661 22.0244 26.2107 20.3161 26.9718 19.9721C27.284 19.831 27.4385 19.8327 27.7458 19.9808ZM50.7985 19.9401C51.0669 20.0517 51.2787 20.2981 51.3975 20.6367C51.5731 21.137 51.5278 22.4223 51.2737 24.1457C50.7405 27.7629 50.2278 29.5389 49.5748 30.031C48.9837 30.4765 48.2937 30.2851 48.0647 29.6122C47.9554 29.2908 47.9178 28.0327 47.9966 27.3342C48.2111 25.4325 48.7138 22.782 49.076 21.642C49.4036 20.611 49.6805 20.162 50.1076 19.9688C50.3906 19.8409 50.5445 19.8345 50.7985 19.9401ZM101.582 19.9212C101.843 20.0189 102.11 20.3172 102.221 20.6329C102.368 21.0512 102.352 22.316 102.184 23.5156C101.777 26.4349 101.312 28.5474 100.891 29.3873C100.585 29.9983 100.134 30.318 99.6531 30.2641C99.3117 30.2258 99.1189 30.0809 98.9419 29.7297C98.5968 29.0445 98.778 26.7433 99.4314 23.5156C99.8878 21.2608 100.317 20.247 100.933 19.9684C101.203 19.8465 101.354 19.8355 101.582 19.9212ZM87.5742 21.0725C87.6908 21.1744 87.8315 21.3867 87.908 21.5762C88.0301 21.8785 88.0401 21.9878 88.0373 22.9975C88.034 24.2454 87.9159 25.0792 87.4677 27.0221C87.1168 28.5427 86.9152 29.0154 86.4261 29.4643C86.1395 29.7273 85.8744 29.8182 85.3926 29.8187C85.0005 29.8191 84.4857 29.6278 84.4857 29.4818C84.4857 29.4308 84.7979 27.5857 85.1795 25.3817C85.5611 23.1777 85.8734 21.3564 85.8734 21.3346C85.8734 21.3127 86.0613 21.2051 86.291 21.0956C86.8626 20.8228 87.28 20.8153 87.5742 21.0725Z" fill="#F8F8F8"/>
</svg>
