<svg width="20" height="20" viewBox="0 0 20 20" fill="none" xmlns="http://www.w3.org/2000/svg">
<path fill-rule="evenodd" clip-rule="evenodd" d="M14.6667 0C17.6122 0 20 2.38781 20 5.33333V14.6667C20 17.6122 17.6122 20 14.6667 20H5.33333C2.38781 20 0 17.6122 0 14.6667V5.33333C0 2.38781 2.38781 0 5.33333 0H14.6667ZM14.5026 6.83895C14.3022 6.62837 13.9876 6.61083 13.7681 6.7863L13.7107 6.83895L8.88 11.9132L6.28931 9.19192C6.07061 8.96219 5.71604 8.96219 5.49734 9.19192C5.29688 9.4025 5.28017 9.73297 5.44723 9.96353L5.49734 10.0238L8.48402 13.161C8.68451 13.3716 8.99911 13.3892 9.21861 13.2137L9.27596 13.161L14.5026 7.67084C14.7213 7.44112 14.7213 7.06867 14.5026 6.83895Z" fill="#DF4E3C"/>
</svg>
