<svg width="11" height="11" viewBox="0 0 11 11" fill="none" xmlns="http://www.w3.org/2000/svg">
    <path d="M10.0833 4.58332H6.41668V0.916681C6.41668 0.41068 6.00693 0 5.5 0C4.99307 0 4.58332 0.41068 4.58332 0.916681V4.58332H0.916682C0.409757 4.58332 0 4.994 0 5.5C0 6.006 0.409757 6.41668 0.916682 6.41668H4.58332V10.0833C4.58332 10.5893 4.99307 11 5.5 11C6.00693 11 6.41668 10.5893 6.41668 10.0833V6.41668H10.0833C10.5902 6.41668 11 6.006 11 5.5C11 4.994 10.5902 4.58332 10.0833 4.58332Z" fill="black"/>
</svg>
